<svg id="Layer_1" data-name="Layer 1" xmlns="http://www.w3.org/2000/svg" viewBox="0 0 1192 1137"><defs><style>.cls-1{fill:#fff;}</style></defs><title>ic</title><path class="cls-1" d="M596.17,51.25C306.23,51.25,70.34,272.9,70.34,545.34c0,137.42,61,268.42,168,361.85-21.17,32-57.6,75.49-104.22,85.84-17,3.78-26.67,11.58-28.75,23.2-1.39,7.79.46,19.36,17.21,30.16,26.8,17.29,105.87,38.46,193.78,38.46,68.79,0,143-13,201.8-50.91a563.86,563.86,0,0,0,78,5.5c289.94,0,525.83-221.65,525.83-494.1S886.11,51.25,596.17,51.25Zm0,952.08a527.62,527.62,0,0,1-79.56-6.11l-7.06-1.08-5.89,4.05c-107.39,73.82-286.58,46.25-346,23.6,58.17-20.41,99.49-77.14,119.79-110.95l8-13.36-12-9.88C167.3,802.52,106.45,677,106.45,545.34c0-252.53,219.69-458,489.72-458s489.72,205.45,489.72,458S866.21,1003.33,596.17,1003.33Z"/><path class="cls-1" d="M446.66,662.34c0,82.09,66.79,148.88,148.88,148.88H618c82.09,0,148.88-66.79,148.88-148.88v-129H446.66Zm45.13-83.85H721.71v83.85A103.86,103.86,0,0,1,618,766.09H595.54A103.86,103.86,0,0,1,491.79,662.34Z"/><rect class="cls-1" x="271.48" y="365.5" width="99.29" height="148.1"/><rect class="cls-1" x="821.57" y="365.5" width="99.29" height="148.1"/></svg>