<svg id="Layer_1" data-name="Layer 1" xmlns="http://www.w3.org/2000/svg" viewBox="0 0 1192 1137"><defs><style>.cls-1{fill:#fff;}</style></defs><title>ic</title><path class="cls-1" d="M985.29,597.6,549.14,161.45c-6.71-6.71-18.6-6.71-25.31,0L186.34,499a17.9,17.9,0,0,0,0,25.31L622.49,960.41a17.9,17.9,0,0,0,25.31,0l337.49-337.5A17.9,17.9,0,0,0,985.29,597.6ZM550,212.93,932.55,595.49H550Zm85.15,709.51L224.31,511.61l289.88-289.9V613.39a17.91,17.91,0,0,0,17.9,17.9h394.2Z"/><path class="cls-1" d="M585.81,1089.05c-291.14,0-528-236.87-528-528s236.87-528,528-528,528,236.87,528,528S877,1089.05,585.81,1089.05Zm0-1020.23C314.41,68.82,93.6,289.63,93.6,561s220.81,492.21,492.21,492.21S1078,832.44,1078,561,857.22,68.82,585.81,68.82Z"/></svg>