<?xml version="1.0" encoding="utf-8"?>
<!-- Generator: Adobe Illustrator 23.0.2, SVG Export Plug-In . SVG Version: 6.00 Build 0)  -->
<svg version="1.1" id="Capa_1" xmlns="http://www.w3.org/2000/svg" xmlns:xlink="http://www.w3.org/1999/xlink" x="0px" y="0px"
	 viewBox="0 0 380.94 340.98" style="enable-background:new 0 0 380.94 340.98;" xml:space="preserve">
<style type="text/css">
	.st0{fill:#394450;}
	.st1{fill:none;stroke:#394450;stroke-width:4;stroke-miterlimit:10;}
	.st2{fill:none;stroke:#394450;stroke-miterlimit:10;}
	.st3{fill:none;stroke:#394450;stroke-width:5;stroke-miterlimit:10;}
	.st4{fill:none;stroke:#394450;stroke-width:11;stroke-miterlimit:10;}
	.st5{fill:#FFFFFF;}
	.st6{fill:none;stroke:#394450;stroke-width:4;stroke-linecap:round;stroke-linejoin:round;stroke-miterlimit:10;}
	.st7{fill:none;stroke:#394450;stroke-width:4;stroke-linejoin:round;stroke-miterlimit:10;}
</style>
<g>
	<path class="st5" d="M366.85,131.02L204.32,9.07c-8.24-6.2-19.77-6.2-28.01,0L13.79,131.02c-8.17,6.13-11.36,16.35-8.13,26.03
		c3.23,9.7,11.92,15.96,22.14,15.96h39.15c-1.16,6.32-1.76,12.84-1.76,19.49v34.05c0,59.61,48.49,108.12,108.12,108.12h34.03
		c59.63,0,108.12-48.51,108.12-108.12V192.5c0-6.65-0.6-13.17-1.76-19.49h39.15c10.22,0,18.91-6.26,22.14-15.94
		C378.21,147.37,375.02,137.15,366.85,131.02z M366.81,154.34c-1.61,4.86-6.13,10.07-13.96,10.07h-41.11h-8.93
		c0.84,2.82,1.55,5.7,2.13,8.61c1.25,6.3,1.91,12.82,1.91,19.49v34.05c0,54.88-44.64,99.52-99.52,99.52H173.3
		c-54.88,0-99.52-44.64-99.52-99.52V192.5c0-6.67,0.67-13.19,1.91-19.49c0.58-2.9,1.29-5.79,2.13-8.61H68.9H27.79
		c-7.83,0-12.35-5.21-13.96-10.07c-1.63-4.86-1.14-11.75,5.12-16.44L181.48,15.95c2.6-1.96,5.72-2.93,8.84-2.93
		c3.12,0,6.24,0.97,8.84,2.93L361.69,137.9C367.95,142.59,368.44,149.48,366.81,154.34z"/>
	<path class="st5" d="M152.64,235.29c0,19.56,15.92,35.48,35.48,35.48h5.34c19.57,0,35.48-15.92,35.48-35.48v-30.74h-76.31V235.29z
		 M163.39,215.3h54.79v19.99c0,13.63-11.09,24.72-24.72,24.72h-5.34c-13.63,0-24.72-11.09-24.72-24.72V215.3z"/>
	<rect x="124.66" y="142.97" class="st5" width="23.66" height="35.3"/>
	<rect x="225.4" y="148.79" class="st5" width="35.3" height="23.66"/>
</g>
</svg>
