<svg id="Layer_1" data-name="Layer 1" xmlns="http://www.w3.org/2000/svg" viewBox="0 0 1417 1038"><defs><style>.cls-1{fill:#fc154c;}</style></defs><title>index design dots</title><circle class="cls-1" cx="77.73" cy="70.32" r="70.73"/><circle class="cls-1" cx="261.27" cy="70.32" r="70.73"/><circle class="cls-1" cx="443.89" cy="70.32" r="70.73"/><circle class="cls-1" cx="620.55" cy="70.32" r="70.73"/><circle class="cls-1" cx="77.73" cy="252.06" r="70.73"/><circle class="cls-1" cx="261.27" cy="252.06" r="70.73"/><circle class="cls-1" cx="443.89" cy="252.06" r="70.73"/><circle class="cls-1" cx="620.55" cy="252.06" r="70.73"/><circle class="cls-1" cx="77.73" cy="427.44" r="70.73"/><circle class="cls-1" cx="261.27" cy="427.44" r="70.73"/><circle class="cls-1" cx="443.89" cy="427.44" r="70.73"/><circle class="cls-1" cx="620.55" cy="427.44" r="70.73"/><circle class="cls-1" cx="77.73" cy="609.77" r="70.73"/><circle class="cls-1" cx="261.27" cy="609.77" r="70.73"/><circle class="cls-1" cx="443.89" cy="609.77" r="70.73"/><circle class="cls-1" cx="620.55" cy="609.77" r="70.73"/><circle class="cls-1" cx="77.73" cy="791.5" r="70.73"/><circle class="cls-1" cx="261.27" cy="791.5" r="70.73"/><circle class="cls-1" cx="443.89" cy="791.5" r="70.73"/><circle class="cls-1" cx="620.55" cy="791.5" r="70.73"/><circle class="cls-1" cx="77.73" cy="966.88" r="70.73"/><circle class="cls-1" cx="261.27" cy="966.88" r="70.73"/><circle class="cls-1" cx="443.89" cy="966.88" r="70.73"/><circle class="cls-1" cx="620.55" cy="966.88" r="70.73"/><circle class="cls-1" cx="803.45" cy="68.49" r="70.73"/><circle class="cls-1" cx="987" cy="68.49" r="70.73"/><circle class="cls-1" cx="1169.62" cy="68.49" r="70.73"/><circle class="cls-1" cx="1346.27" cy="68.49" r="70.73"/><circle class="cls-1" cx="803.45" cy="250.22" r="70.73"/><circle class="cls-1" cx="987" cy="250.22" r="70.73"/><circle class="cls-1" cx="1169.62" cy="250.22" r="70.73"/><circle class="cls-1" cx="1346.27" cy="250.22" r="70.73"/><circle class="cls-1" cx="803.45" cy="425.61" r="70.73"/><circle class="cls-1" cx="987" cy="425.61" r="70.73"/><circle class="cls-1" cx="1169.62" cy="425.61" r="70.73"/><circle class="cls-1" cx="1346.27" cy="425.61" r="70.73"/><circle class="cls-1" cx="803.45" cy="608.94" r="70.73"/><circle class="cls-1" cx="987" cy="608.94" r="70.73"/><circle class="cls-1" cx="1169.62" cy="608.94" r="70.73"/><circle class="cls-1" cx="1346.27" cy="608.94" r="70.73"/><circle class="cls-1" cx="803.45" cy="790.68" r="70.73"/><circle class="cls-1" cx="987" cy="790.68" r="70.73"/><circle class="cls-1" cx="1169.62" cy="790.68" r="70.73"/><circle class="cls-1" cx="1346.27" cy="790.68" r="70.73"/><circle class="cls-1" cx="803.45" cy="966.06" r="70.73"/><circle class="cls-1" cx="987" cy="966.06" r="70.73"/><circle class="cls-1" cx="1169.62" cy="966.06" r="70.73"/><circle class="cls-1" cx="1346.27" cy="966.06" r="70.73"/></svg>