<svg id="Layer_1" data-name="Layer 1" xmlns="http://www.w3.org/2000/svg" viewBox="0 0 1192 1137"><defs><style>.cls-1{fill:#fff;}</style></defs><title>ic</title><path class="cls-1" d="M910.54,725.66,899.68,545.94a72,72,0,0,0-49.55-64.13L440.05,348.07a11,11,0,0,0-11.16,18.19L612.47,549.84c9.13,9.13,22.38,12.08,34.91,9A85.13,85.13,0,0,1,720.87,708.1c-30.43,24.35-74.9,24.49-105.46.33a85.13,85.13,0,0,1-30-87.67c3.11-12.49.11-25.69-9-34.79L392.78,402.38a11,11,0,0,0-18.2,11.16L508.32,823.61a72,72,0,0,0,64.13,49.56L752.17,884a72,72,0,0,0,55.27-21l82.14-82.14A72,72,0,0,0,910.54,725.66Z"/><path class="cls-1" d="M962.4,803.46l-5.06-5.06a34.74,34.74,0,0,0-49.12,0l-83.3,83.31a34.72,34.72,0,0,0,0,49.12l5.05,5.06a34.74,34.74,0,0,0,49.12,0l83.31-83.31A34.74,34.74,0,0,0,962.4,803.46Z"/><path class="cls-1" d="M971.91,205c-84-84-260.83-169.25-423-161.79C458.05,47.42,384,81,334.68,140.36c-35,42.14-46,94-33.29,139.66a138.73,138.73,0,0,0-58.94-4.29c-47.69,6.58-92.21,35.74-119.09,78C7.52,535.87,94.88,818.94,245.72,959.09c99.56,92.49,227.8,138.81,356.09,138.8,126.55,0,253.15-45.09,352.17-135.37,107-97.58,167.8-230.82,171.13-375.17S1074,307.13,971.91,205ZM931,937.35c-186.42,170-477.26,168.56-662.14-3.21C127.88,803.12,45.23,540,152.09,372c21.26-33.44,57.68-57.41,95-62.56a112.3,112.3,0,0,1,15.38-1.07,101.5,101.5,0,0,1,34.31,5.91l-8.09,8.08,60.2,60.2,60.19-60.2L348.9,262.19l-13.38,13.38c-12.21-36.22-3.83-78.3,25.36-113.45C404.49,109.6,468.29,81,550.5,77.23c152.35-7,318.46,73,397.34,151.86,95.47,95.47,146.34,222.43,143.23,357.47S1031.12,846.11,931,937.35Z"/></svg>